HIERARCHY
ROOT Hips
{
	OFFSET 0.000000 0.000000 0.000000 
	CHANNELS 6 Xposition Yposition Zposition Yrotation Zrotation Xrotation 
	JOINT Lumbar
	{
		OFFSET 0.000000 0.000000 0.000000 
		CHANNELS 3 Zrotation Xrotation Yrotation
		JOINT Neck
		{
			OFFSET 0.000000 0.445665 0.000000 
			CHANNELS 3 Zrotation Xrotation Yrotation
			End Site
			{
				OFFSET 0.000000 0.227535 0.000000 
			}
		}
		JOINT RightShoulder
		{
			OFFSET 0.019635 0.377685 0.194865 
			CHANNELS 3 Zrotation Xrotation Yrotation
			JOINT RightElbow
			{
				OFFSET 0.000000 -0.243375 0.000000 
				CHANNELS 2 Zrotation Yrotation
				JOINT RightWrist
				{
					OFFSET 0.000000 -0.264825 0.000000 
					CHANNELS 2 Zrotation Xrotation
					End Site
					{
						OFFSET 0.006600 -0.176220 0.000990 
					}
				}
			}
		}
		JOINT LeftShoulder
		{
			OFFSET 0.019635 0.377685 -0.194865 
			CHANNELS 3 Zrotation Xrotation Yrotation
			JOINT LeftElbow
			{
				OFFSET 0.000000 -0.243375 0.000000 
				CHANNELS 2 Zrotation Yrotation
				JOINT LeftWrist
				{
					OFFSET 0.000000 -0.264825 0.000000 
					CHANNELS 2 Zrotation Xrotation
					End Site
					{
						OFFSET 0.006600 -0.176220 -0.000990 
					}
				}
			}
		}
	}
	JOINT RightHip
	{
		OFFSET 0.052140 -0.069960 0.075570 
		CHANNELS 3 Zrotation Xrotation Yrotation
		JOINT RightKnee
		{
			OFFSET 0.000000 -0.402270 0.000000 
			CHANNELS 1 Zrotation
			JOINT RightAnkle
			{
				OFFSET 0.000000 -0.404085 0.000000 
				CHANNELS 3 Zrotation Xrotation Yrotation
				End Site
				{
					OFFSET 0.204105 -0.089430 0.008415 
				}
			}
		}
	}
	JOINT LeftHip
	{
		OFFSET 0.052140 -0.069960 -0.075570 
		CHANNELS 3 Zrotation Xrotation Yrotation
		JOINT LeftKnee
		{
			OFFSET 0.000000 -0.402270 0.000000 
			CHANNELS 1 Zrotation
			JOINT LeftAnkle
			{
				OFFSET 0.000000 -0.404085 0.000000 
				CHANNELS 3 Zrotation Xrotation Yrotation
				End Site
				{
					OFFSET 0.204105 -0.089430 -0.008415 
				}
			}
		}
	}
}
MOTION
Frames: 11
Frame Time: 0.02
0.25369 -0.01537 -0.25884 -31.75878 -40.04067 -2.04377 48.44153 -2.64008 -16.41074 5.41001 3.61592 -2.11994 139.83274 -64.61087 55.6303 5.7877 114.33853 21.03089 2.89336 166.38693 171.25675 87.14687 134.30124 -86.95055 -69.32027 5.83844 66.02808 -5.20144 -8.29565 -24.19247 -8.03853 -2.9915 -3.76023 40.14645 -2.08373 18.02357 -22.55748 -6.54132 1.24426 2.84821
0.26401 -0.01712 -0.24973 -31.73819 -40.25366 -2.07966 48.63028 -2.68046 -16.50394 5.29085 3.80491 -2.11994 139.74124 -64.5387 55.63116 5.78755 114.29308 20.98285 2.81018 166.38693 171.25771 87.14687 134.30125 -86.95088 -69.3641 5.9096 66.52852 -5.07473 -9.08518 -23.58939 -7.87088 -3.005 -3.75796 39.38798 -1.9949 17.54716 -22.46727 -6.46196 1.30953 2.87583
0.27489 -0.01901 -0.24002 -31.6806 -40.42199 -2.13938 48.83469 -2.70959 -16.6261 5.17726 3.99844 -2.11994 139.73288 -64.47824 55.63134 5.78744 114.46555 21.02769 2.73439 166.38693 171.25624 87.14687 134.30126 -86.92274 -69.5052 5.9754 66.8271 -5.17646 -10.51985 -23.72525 -7.62207 -2.93699 -3.71224 38.54719 -1.90421 16.84646 -22.36623 -6.38581 1.39343 2.91272
0.28556 -0.02079 -0.23051 -31.64362 -40.60483 -2.20234 49.02907 -2.73928 -16.74744 5.06702 4.19543 -2.11994 139.66757 -64.42043 55.63291 5.78721 114.49977 21.03442 2.65247 166.38693 171.25681 87.14687 134.30127 -86.90172 -69.6214 6.03391 67.18689 -5.14575 -11.59721 -23.52217 -7.42003 -2.90404 -3.68581 37.73392 -1.79827 16.243 -22.26419 -6.31086 1.46875 2.94542
0.29608 -0.02279 -0.2213 -31.59127 -40.8145 -2.20607 49.24011 -2.78794 -16.81401 4.92933 4.36941 -2.11994 139.69356 -64.32662 55.63358 5.78703 114.70102 21.02418 2.58356 166.38694 171.26073 87.14688 134.30128 -86.91791 -69.65848 6.12017 67.67822 -5.2272 -12.91423 -23.33997 -7.17746 -2.88143 -3.66229 36.96185 -1.76128 15.65788 -22.1839 -6.22373 1.54559 2.97846
0.30702 -0.02435 -0.21131 -31.56175 -40.9573 -2.33748 49.41875 -2.79544 -17.00136 4.85149 4.59165 -2.11994 139.54053 -64.31415 55.63139 5.78725 114.60663 21.07084 2.48844 166.38694 171.24792 87.14688 134.30129 -86.83411 -69.88015 6.16424 67.84618 -5.13445 -13.90371 -23.28676 -6.99909 -2.81743 -3.62211 36.08743 -1.58022 14.98101 -22.06038 -6.16384 1.6231 3.01276
0.319 -0.0247 -0.19941 -31.60658 -40.91946 -2.83137 49.50085 -2.6806 -17.52958 4.93274 4.95392 -2.11994 138.88872 -64.5002 55.63904 5.78656 113.62017 21.25326 2.32105 166.38694 171.26875 87.14688 134.30129 -86.62088 -70.61737 5.94248 67.17519 -4.4816 -13.74709 -23.40994 -7.02377 -2.65605 -3.54541 34.91797 -0.99694 14.11668 -21.78148 -6.16966 1.7002 3.04891
0.33136 -0.02459 -0.18674 -31.67542 -40.81653 -3.45008 49.54967 -2.52664 -18.17593 5.07481 5.36321 -2.11994 138.02196 -64.77856 55.62574 5.78828 112.32638 21.48725 2.12485 166.38694 171.25862 87.14688 134.30129 -86.28593 -71.53144 5.7028 66.18442 -3.65042 -13.25518 -23.63617 -7.1146 -2.45626 -3.45358 33.65547 -0.26945 13.16659 -21.46891 -6.20474 1.77663 3.08577
0.34354 -0.02465 -0.17439 -31.73147 -40.74776 -4.00162 49.61531 -2.39814 -18.75968 5.19309 5.74588 -2.11994 137.27828 -65.02137 55.62926 5.78808 111.19524 21.69962 1.94263 166.38694 171.20989 87.14688 134.30129 -85.90991 -72.34527 5.57478 65.33693 -2.91757 -12.97812 -23.81346 -7.17125 -2.2755 -3.36919 32.45475 0.38906 12.24821 -21.19406 -6.23171 1.85193 3.12193
0.35581 -0.02486 -0.16215 -31.79327 -40.65897 -4.59843 49.67478 -2.23735 -19.38325 5.29707 6.15086 -2.11994 136.5462 -65.2104 55.66267 5.78458 109.99957 21.91681 1.76389 166.38694 171.38094 87.14688 134.3013 -85.9232 -73.24668 5.02482 64.49171 -2.1213 -12.4692 -24.02555 -7.24274 -2.08453 -3.28059 31.1631 1.06222 11.3504 -20.81462 -6.23556 1.93458 3.16028
0.36796 -0.02465 -0.14952 -31.85039 -40.59598 -5.12979 49.73853 -2.13403 -19.95 5.44295 6.52049 -2.11994 135.59257 -65.5673 55.55271 5.79705 108.83134 22.12336 1.56224 166.38694 171.09004 87.14688 134.30127 -85.11793 -74.00601 5.33038 63.56765 -1.40968 -12.34294 -24.18001 -7.29973 -1.9077 -3.19814 30.0471 1.73903 10.39511 -20.65719 -6.29616 2.00075 3.19379
